<svg width="15" height="15" viewBox="0 0 15 15" fill="none" xmlns="http://www.w3.org/2000/svg">
<g clip-path="url(#clip0_3_69)">
<path d="M7.50023 15.0002C9.48936 15.0002 11.397 14.21 12.8035 12.8035C14.2101 11.397 15.0002 9.48934 15.0002 7.50022C14.9995 6.01737 14.5593 4.56799 13.7351 3.33526C12.911 2.10253 11.7399 1.14178 10.3699 0.574405C8.99987 0.00703377 7.49241 -0.141485 6.03801 0.147616C4.58361 0.436718 3.24755 1.15047 2.19867 2.19866C0.79321 3.60504 0.00370789 5.51195 0.00370789 7.50022C0.00370789 9.48849 0.79321 11.3954 2.19867 12.8018C2.89259 13.5013 3.71862 14.0558 4.62875 14.4332C5.53888 14.8106 6.51496 15.0034 7.50023 15.0002ZM2.85961 2.8596C3.469 2.25014 4.19247 1.76669 4.98872 1.43685C5.78496 1.10701 6.63838 0.937247 7.50023 0.937247C8.36209 0.937247 9.2155 1.10701 10.0117 1.43685C10.808 1.76669 11.5315 2.25014 12.1409 2.8596C13.0586 3.7774 13.6835 4.94673 13.9367 6.21971C14.1898 7.49269 14.0598 8.81216 13.5631 10.0113C13.0664 11.2104 12.2253 12.2352 11.1461 12.9563C10.0669 13.6774 8.79814 14.0622 7.50023 14.0622C6.20232 14.0622 4.93355 13.6774 3.85437 12.9563C2.77519 12.2352 1.93406 11.2104 1.43734 10.0113C0.940617 8.81216 0.810618 7.49269 1.06378 6.21971C1.31694 4.94673 1.94189 3.7774 2.85961 2.8596Z" fill="white"/>
<path d="M7.50001 11.8031C8.06516 11.8037 8.62486 11.6926 9.14694 11.4762C9.66902 11.2599 10.1432 10.9424 10.5422 10.5422C10.619 10.4525 10.6591 10.3372 10.6546 10.2192C10.65 10.1012 10.6011 9.9893 10.5176 9.90582C10.4341 9.82233 10.3222 9.77343 10.2043 9.76887C10.0863 9.76431 9.97093 9.80444 9.88126 9.88124C9.41041 10.3515 8.81071 10.6717 8.15795 10.8012C7.50519 10.9308 6.82867 10.8639 6.21392 10.609C5.59916 10.3542 5.07375 9.92281 4.70411 9.36942C4.33446 8.81603 4.13717 8.16548 4.13717 7.49999C4.13717 6.8345 4.33446 6.18394 4.70411 5.63055C5.07375 5.07717 5.59916 4.64578 6.21392 4.39093C6.82867 4.13608 7.50519 4.0692 8.15795 4.19874C8.81071 4.32829 9.41041 4.64844 9.88126 5.11874C9.97093 5.19553 10.0863 5.23566 10.2043 5.2311C10.3222 5.22654 10.4341 5.17764 10.5176 5.09416C10.6011 5.01067 10.65 4.89877 10.6546 4.78079C10.6591 4.66282 10.619 4.54747 10.5422 4.4578C10.1428 4.05642 9.66799 3.73792 9.14511 3.52059C8.62223 3.30326 8.06157 3.19138 7.49532 3.19138C6.92907 3.19138 6.36841 3.30326 5.84553 3.52059C5.32265 3.73792 4.84786 4.05642 4.44844 4.4578C3.84631 5.06016 3.43647 5.82766 3.27083 6.66311C3.10518 7.49855 3.19119 8.36436 3.51795 9.1509C3.84471 9.93743 4.39753 10.6093 5.1064 11.0814C5.81527 11.5536 6.6483 11.8047 7.50001 11.8031Z" fill="white"/>
</g>
<defs>
<clipPath id="clip0_3_69">
<rect width="15" height="15" fill="white"/>
</clipPath>
</defs>
</svg>
