<svg width="20" height="20" viewBox="0 0 20 20" fill="none" xmlns="http://www.w3.org/2000/svg">
<path d="M11.0595 4.77243C11.0595 4.97711 11.0595 5.64426 11.0595 6.59208H14.3182L13.9649 9.49704H11.0595C11.0595 13.977 11.0595 19.9804 11.0595 19.9804H7.20297C7.20297 19.9804 7.20297 14.0565 7.20297 9.49704H5.19348V6.59208H7.20297C7.20297 5.44004 7.20297 4.62086 7.20297 4.39278C7.20297 3.30606 7.12109 2.79044 7.58285 1.94833C8.04484 1.10626 9.34797 -0.00679082 11.6018 0.020006C13.8562 0.0477795 14.8065 0.264654 14.8065 0.264654L14.3182 3.36063C14.3182 3.36063 12.8786 2.98051 12.172 3.11598C11.4664 3.25149 11.0595 3.68618 11.0595 4.77243Z" fill="#1D2772"/>
</svg>
