<svg width="287" height="256" viewBox="0 0 287 256" fill="none" xmlns="http://www.w3.org/2000/svg">
<rect width="275" height="250" rx="21" fill="#30376B"/>
<path d="M53.16 157.1L45.24 131.36L107.7 68H143.88L53.16 157.1ZM30.84 194V68H61.44V194H30.84ZM111.66 194L64.86 132.44L85.56 114.62L147.3 194H111.66ZM203.909 195.8C195.629 195.8 188.129 194.84 181.409 192.92C174.809 190.88 168.929 188 163.769 184.28C158.609 180.44 153.989 175.94 149.909 170.78L168.449 149.72C174.449 157.76 180.449 163.16 186.449 165.92C192.569 168.68 198.869 170.06 205.349 170.06C208.589 170.06 211.529 169.64 214.169 168.8C216.809 167.96 218.849 166.76 220.289 165.2C221.729 163.52 222.449 161.48 222.449 159.08C222.449 157.28 221.969 155.66 221.009 154.22C220.169 152.78 218.969 151.52 217.409 150.44C215.849 149.36 213.989 148.4 211.829 147.56C209.669 146.6 207.389 145.82 204.989 145.22C202.589 144.5 200.129 143.9 197.609 143.42C190.649 141.86 184.589 139.94 179.429 137.66C174.269 135.38 169.949 132.62 166.469 129.38C163.109 126.02 160.589 122.24 158.909 118.04C157.229 113.72 156.389 108.92 156.389 103.64C156.389 98 157.649 92.84 160.169 88.16C162.809 83.36 166.289 79.28 170.609 75.92C175.049 72.44 180.149 69.8 185.909 68C191.669 66.08 197.669 65.12 203.909 65.12C212.189 65.12 219.269 66.02 225.149 67.82C231.149 69.5 236.249 71.96 240.449 75.2C244.769 78.44 248.429 82.34 251.429 86.9L232.529 105.08C230.009 101.96 227.249 99.38 224.249 97.34C221.369 95.3 218.249 93.74 214.889 92.66C211.649 91.58 208.289 91.04 204.809 91.04C201.209 91.04 198.089 91.52 195.449 92.48C192.929 93.32 190.949 94.58 189.509 96.26C188.069 97.82 187.349 99.74 187.349 102.02C187.349 104.06 187.949 105.8 189.149 107.24C190.349 108.68 191.969 110 194.009 111.2C196.049 112.28 198.389 113.24 201.029 114.08C203.669 114.8 206.429 115.4 209.309 115.88C215.909 117.2 221.849 118.94 227.129 121.1C232.529 123.26 237.149 125.9 240.989 129.02C244.949 132.14 247.949 135.86 249.989 140.18C252.149 144.38 253.229 149.3 253.229 154.94C253.229 163.7 251.069 171.14 246.749 177.26C242.549 183.26 236.729 187.88 229.289 191.12C221.969 194.24 213.509 195.8 203.909 195.8Z" fill="#FAAC1C"/>
</svg>
