<svg width="25" height="25" viewBox="0 0 25 25" fill="none" xmlns="http://www.w3.org/2000/svg">
<path d="M12.5 22.9167C18.253 22.9167 22.9167 18.253 22.9167 12.5C22.9167 6.74704 18.253 2.08334 12.5 2.08334C6.74704 2.08334 2.08334 6.74704 2.08334 12.5C2.08334 18.253 6.74704 22.9167 12.5 22.9167Z" fill="#30376B"/>
<path d="M12.5 7.37615C14.1688 7.37615 14.3665 7.3825 15.0255 7.41255C15.6349 7.44036 15.9658 7.54219 16.1861 7.62776C16.4778 7.74115 16.686 7.87656 16.9047 8.09526C17.1234 8.31401 17.2589 8.52219 17.3722 8.81391C17.4578 9.03417 17.5596 9.3651 17.5874 9.97443C17.6175 10.6335 17.6239 10.8311 17.6239 12.4999C17.6239 14.1688 17.6175 14.3665 17.5874 15.0255C17.5596 15.6349 17.4578 15.9658 17.3722 16.186C17.2589 16.4778 17.1234 16.686 16.9047 16.9047C16.686 17.1234 16.4778 17.2588 16.1861 17.3722C15.9658 17.4578 15.6349 17.5596 15.0255 17.5874C14.3666 17.6174 14.169 17.6239 12.5 17.6239C10.831 17.6239 10.6334 17.6174 9.97448 17.5874C9.3651 17.5596 9.03417 17.4578 8.81391 17.3722C8.52219 17.2588 8.31401 17.1234 8.09531 16.9047C7.87661 16.686 7.74115 16.4778 7.62776 16.186C7.54219 15.9658 7.44036 15.6349 7.41255 15.0255C7.3825 14.3665 7.37615 14.1688 7.37615 12.4999C7.37615 10.8311 7.3825 10.6335 7.41255 9.97443C7.44036 9.3651 7.54219 9.03417 7.62776 8.81391C7.74115 8.52219 7.87656 8.31401 8.09531 8.09531C8.31401 7.87656 8.52219 7.74115 8.81391 7.62776C9.03417 7.54219 9.3651 7.44036 9.97448 7.41255C10.6335 7.3825 10.8312 7.37615 12.5 7.37615ZM12.5 6.25C10.8026 6.25 10.5897 6.25719 9.92313 6.2876C9.25792 6.31797 8.80354 6.42359 8.40599 6.57813C7.995 6.73781 7.64646 6.95151 7.29901 7.29901C6.95151 7.64646 6.73781 7.995 6.57813 8.40599C6.42359 8.80354 6.31797 9.25786 6.2876 9.92313C6.25719 10.5897 6.25 10.8026 6.25 12.4999C6.25 14.1974 6.25719 14.4102 6.2876 15.0768C6.31797 15.7421 6.42359 16.1964 6.57813 16.594C6.73781 17.0049 6.95151 17.3535 7.29901 17.701C7.64646 18.0484 7.995 18.2621 8.40599 18.4218C8.80354 18.5764 9.25792 18.682 9.92313 18.7123C10.5897 18.7428 10.8026 18.7499 12.5 18.7499C14.1974 18.7499 14.4103 18.7428 15.0769 18.7123C15.7421 18.682 16.1965 18.5764 16.594 18.4218C17.005 18.2621 17.3535 18.0484 17.701 17.701C18.0484 17.3535 18.2622 17.0049 18.4219 16.594C18.5764 16.1964 18.682 15.7421 18.7124 15.0768C18.7428 14.4102 18.75 14.1974 18.75 12.4999C18.75 10.8026 18.7428 10.5897 18.7124 9.92313C18.682 9.25786 18.5764 8.80354 18.4219 8.40599C18.2622 7.995 18.0484 7.64646 17.701 7.29901C17.3535 6.95151 17.005 6.73781 16.594 6.57813C16.1965 6.42359 15.7421 6.31797 15.0769 6.2876C14.4103 6.25719 14.1974 6.25 12.5 6.25Z" fill="white"/>
<path d="M12.5031 9.2934C10.7305 9.2934 9.29364 10.7303 9.29364 12.5028C9.29364 14.2754 10.7305 15.7123 12.5031 15.7123C14.2756 15.7123 15.7125 14.2754 15.7125 12.5028C15.7125 10.7303 14.2756 9.2934 12.5031 9.2934ZM12.5031 14.5862C11.3525 14.5862 10.4197 13.6534 10.4197 12.5028C10.4197 11.3523 11.3525 10.4195 12.5031 10.4195C13.6537 10.4195 14.5864 11.3523 14.5864 12.5028C14.5864 13.6534 13.6537 14.5862 12.5031 14.5862Z" fill="white"/>
<path d="M16.5889 9.16472C16.5889 9.57889 16.2531 9.91473 15.8389 9.91473C15.4247 9.91473 15.0889 9.57889 15.0889 9.16472C15.0889 8.75051 15.4247 8.41467 15.8389 8.41467C16.2531 8.41467 16.5889 8.75051 16.5889 9.16472Z" fill="white"/>
</svg>
