<svg width="100" height="100" viewBox="0 0 100 100" fill="none" xmlns="http://www.w3.org/2000/svg">
<g clip-path="url(#clip0_3_66)">
<path d="M50 100C77.5699 100 100 77.5699 100 50C100 22.4301 77.5699 3.0312e-06 50 3.0312e-06C22.4301 3.0312e-06 3.0312e-06 22.4301 3.0312e-06 50C3.0312e-06 77.5699 22.4298 100 50 100ZM74.4843 25.4228C75.0471 25.0419 76.4596 24.7067 77.286 25.6243L78.8107 27.5419C79.5481 28.7888 78.655 29.9451 78.0769 30.4247C75.3281 32.7049 73.3293 34.4687 72.082 35.7163C69.6362 38.2885 67.8282 40.8632 66.6344 43.4302C66.3615 44.0171 67.0582 44.3897 67.4202 44.5083C76.4335 47.4623 80.9417 52.6701 80.9417 60.1307C80.9417 64.5264 79.4817 68.0983 76.5634 70.8441C73.6438 73.5916 69.9865 74.9645 65.5925 74.9645C61.678 74.9645 58.2093 73.1794 55.1881 69.6078C52.2344 66.2438 50.7587 62.603 50.7587 58.6885C50.7583 47.2161 58.6666 36.1279 74.4843 25.4228ZM40.1806 25.4228C40.7433 25.0419 42.1559 24.7067 42.9822 25.6243L44.507 27.5419C45.2444 28.7888 44.3513 29.9451 43.7731 30.4247C41.0247 32.7049 39.0255 34.4687 37.7783 35.7163C35.3325 38.2885 33.5244 40.8632 32.3304 43.4302C32.0574 44.0171 32.7542 44.3897 33.1161 44.5083C42.1295 47.4623 46.6376 52.6701 46.6376 60.1307C46.6376 64.5264 45.1776 68.0983 42.2593 70.8441C39.3394 73.5916 35.6825 74.9645 31.2884 74.9645C27.374 74.9645 23.9052 73.1794 20.8841 69.6078C17.9307 66.2438 16.4546 62.603 16.4546 58.6885C16.4546 47.2161 24.3628 36.1279 40.1806 25.4228Z" fill="#FAAC1C"/>
</g>
<defs>
<clipPath id="clip0_3_66">
<rect width="100" height="100" fill="white" transform="matrix(-1 0 0 -1 100 100)"/>
</clipPath>
</defs>
</svg>
